<svg xmlns:xlink="http://www.w3.org/1999/xlink" xmlns="http://www.w3.org/2000/svg" width="22" height="22" viewBox="0 0 24 24"><defs><filter id="rsvg"><feColorMatrix in="SourceGraphic" values="0 0 0 0 0.000000 0 0 0 0 0.000000 0 0 0 0 0.000000 0 0 0 1.000000 0"></feColorMatrix></filter></defs><g fill="none" fill-rule="evenodd" stroke-linecap="round" stroke-linejoin="round" filter="url(#rsvg)"><g stroke="#FFFFFF" stroke-width="1.2px" fill="none"><path d="M22 20C12.6 20 5 12.4 5 3m10 16.3s-1.5 2.3-3.8 2.7c-1.8.3-3.9-2-3.9-2s1.4-1.6 3.3-1.9c2-.4 4.4 1.2 4.4 1.2h0z" stroke="#FFFFFF" fill="none" stroke-width="1.2px"></path><path d="M3 14s1.6-1.3 3.5-1.1c1.4.2 2.5 2.4 2.5 2.4s-1.5.9-2.9.7C4.4 15.8 3 14 3 14h0zm7.1 0s-1.4-1.5-1.3-3.4C9 9.1 11.2 8 11.2 8s.9 1.4.8 2.8c-.1 1.7-1.9 3.2-1.9 3.2h0zM1 6.3s.1 1.9 1.4 3c1 .8 3.1.2 3.1.2S5.2 8 4.2 7.1C3 6.1 1 6.3 1 6.3h0zm5.1.8s1.8-.3 2.7-1.8c.7-1.1-.3-3.1-.3-3.1s-1.3.6-2 1.7c-.8 1.3-.4 3.2-.4 3.2h0zm9 5s-1.1 2.5-.1 4.7c.7 1.7 3.9 2.2 3.9 2.2s.6-2.1-.2-3.8c-.9-2-3.6-3.1-3.6-3.1h0z" stroke="#FFFFFF" fill="none" stroke-width="1.2px"></path></g></g></svg>