<svg xmlns:xlink="http://www.w3.org/1999/xlink" xmlns="http://www.w3.org/2000/svg" width="22" height="22" viewBox="0 0 24 24"><defs><filter id="msvg"><feColorMatrix in="SourceGraphic" values="0 0 0 0 0.000000 0 0 0 0 0.000000 0 0 0 0 0.000000 0 0 0 1.000000 0"></feColorMatrix></filter></defs><g fill="none" fill-rule="evenodd" filter="url(#msvg)"><path stroke="#FFFFFF" stroke-linejoin="round" d="M15.5 13.5a6 6 0 1 1-12 0 6 6 0 0 1 12 0z" fill="none"></path><path stroke="#FFFFFF" stroke-linecap="round" stroke-linejoin="round" d="M9.5 7.5V4.532m2.248 3.404 1.111-2.75m2.169 5.982 2.735-1.152m-4.021-.759 2.1-2.098m-8.59.777L6.14 5.186m-2.168 5.982-2.735-1.152m10.511 9.048 1.111 2.753m2.169-5.985 2.735 1.154M7.252 19.064 6.14 21.817m-2.168-5.985-2.735 1.154m4.021-7.729-2.1-2.098M15.5 13.5h2.969m-4.727 4.244 2.1 2.099M9.5 19.5v2.969m-4.242-4.725-2.1 2.099M3.5 13.5H.531M9.5 15a1.5 1.5 0 1 1-3 0 1.5 1.5 0 0 1 3 0h0zm2-4a.5.5 0 1 1-1 0 .5.5 0 0 1 1 0h0z" fill="none"></path><path fill="#FFFFFF" d="M12.5 14a.5.5 0 1 0 0 1 .5.5 0 0 0 0-1"></path><path stroke="#FFFFFF" stroke-linecap="round" stroke-linejoin="round" d="M22.5 3.5a2 2 0 1 1-3.999.001A2 2 0 0 1 22.5 3.5h0zm-2-2v-1m1.414 1.586.707-.707M22.5 3.5h1m-1.586 1.415.707.707M20.5 5.5v1m-1.414-1.585-.707.707M18.5 3.5h-1m1.586-1.414-.707-.707" fill="none"></path></g></svg>