<svg xmlns:xlink="http://www.w3.org/1999/xlink" xmlns="http://www.w3.org/2000/svg" width="22" height="22" viewBox="0 0 24 24"><path d="M21.586 4H2.414C1.065 4 0 5.094 0 6.48v12.04C0 19.905 1.065 21 2.414 21h19.172C22.935 21 24 19.906 24 18.52V6.48C24 5.168 22.935 4 21.586 4zm1.349 14.592c0 .73-.64 1.387-1.35 1.387H2.416c-.71 0-1.35-.657-1.35-1.387V6.481c0-.73.64-1.387 1.35-1.387h19.17c.71 0 1.35.657 1.35 1.387v12.111z"></path><path d="M13.917 6.627h-3.905v3.867H6.249v4.012h3.763v3.94h3.905v-3.94h3.834v-4.012h-3.834z"></path></svg>