<svg xmlns:xlink="http://www.w3.org/1999/xlink" xmlns="http://www.w3.org/2000/svg" width="22" height="22" viewBox="11.77 -0.03 36.53 28.13"><path d="m39.2 15.4-12-3.2v3l12 3.2z"></path><path d="M44.9 21.2c-.3 0-.6.1-.9.1l-21.8-5.9L16.7 2c-.1-.2-.3-.4-.5-.4L12.7 0c-.4-.1-.8.1-.9.5-.1.4.1.8.5.9l3.2 1.5 5 12.6v4.4c-1.6.6-2.8 2.1-2.8 4 0 2.3 1.9 4.2 4.2 4.2h.6c1.5-.2 2.7-1.2 3.3-2.5h15.8l-.1-.6c.2 1.7 1.6 3 3.4 3h.5c1.7-.2 2.9-1.7 2.9-3.4 0-1.9-1.6-3.4-3.4-3.4zm-22.5 5.3H22c-1.5 0-2.8-1.2-2.8-2.8 0-1.5 1.2-2.8 2.8-2.8s2.8 1.2 2.8 2.8c0 1.4-1 2.6-2.4 2.8zm22.7 0h-.3c-1.1 0-1.9-.9-1.9-1.9 0-1.1.9-1.9 1.9-1.9s1.9.9 1.9 1.9c.1 1-.6 1.8-1.6 1.9z"></path></svg>