<svg xmlns:xlink="http://www.w3.org/1999/xlink" xmlns="http://www.w3.org/2000/svg" width="22" height="22" viewBox="18.5 0 23.2 28.1"><path d="M30.2 8.2H18.7v.2c0 .1-.6 2.7.3 4.9.2.5.5 1.1 1 1.5 1 1 2.3 1.6 4.1 1.6v5.4c-2.2.1-3.8.7-3.8 1.5 0 .9 1.9 1.6 4.3 1.6s4.3-.7 4.3-1.6c0-.8-1.7-1.5-3.8-1.5v-5.4c1.9-.1 3.3-.6 4.2-1.6.4-.4.7-.8.9-1.3 1-2.3.3-5.1.2-5.2l-.2-.1zm-.2 2H19c0-.7.1-1.2.1-1.5h10.6c.2.3.3.9.3 1.5 0 .1 0 0 0 0zM38.6 8V5h-2.7v3c0 1.7-3 2.5-3 5.1v13.7c0 .7.6 1.3 1.3 1.3h6.2c.7 0 1.3-.6 1.3-1.3V13.1c-.2-2.7-3.1-3.4-3.1-5.1zM38.3 4.3l.4-4.3h-3l.4 4.3z"></path></svg>