<svg xmlns:xlink="http://www.w3.org/1999/xlink" xmlns="http://www.w3.org/2000/svg" width="22" height="22" viewBox="7 2.4 46 23.3"><path d="M12.9 7.8C9.6 7.8 7 10.4 7 13.7s5.9 12 5.9 12 5.9-8.7 5.9-12-2.6-5.9-5.9-5.9zm0 7.5c-1.4 0-2.5-1.1-2.5-2.5s1.1-2.5 2.5-2.5 2.5 1.1 2.5 2.5-1.1 2.5-2.5 2.5zM47.1 2.4c-3.3 0-5.9 2.6-5.9 5.9s5.9 12 5.9 12 5.9-8.7 5.9-12-2.6-5.9-5.9-5.9zm0 7.5c-1.4 0-2.5-1.1-2.5-2.5S45.7 5 47.1 5s2.5 1.1 2.5 2.5-1.1 2.4-2.5 2.4zM23.4 22.9c-.8.4-1.8.7-2.8.9-.3.1-.4.3-.4.6.1.2.3.4.5.4h.1c1-.3 2-.6 2.9-1 .3-.1.4-.4.3-.7-.1-.2-.4-.3-.6-.2zM17.7 24.4c-1.7.2-2.9.2-2.9.2-.3 0-.5.2-.5.5s.2.5.5.5c.1 0 1.3 0 3.1-.2.3 0 .5-.3.4-.6-.1-.3-.3-.5-.6-.4zM28 19.5c-.5.7-1.2 1.4-2.1 2-.2.2-.3.5-.1.7.1.1.3.2.4.2.1 0 .2 0 .3-.1.9-.6 1.7-1.4 2.3-2.2.2-.2.1-.5-.1-.7-.3-.1-.6-.1-.7.1zM41.3 16.4c-.2-.1-.5 0-.7.2-.1.2 0 .5.2.7.8.4 1.7 1 2.5 1.5.1.1.2.1.3.1.2 0 .3-.1.4-.2.2-.2.1-.5-.1-.7-.9-.6-1.8-1.1-2.6-1.6zM32.2 15.1c-1 .4-1.8 1.1-2.6 1.9-.2.2-.2.5.1.7.1.1.2.1.3.1.1 0 .3-.1.4-.2.6-.7 1.4-1.3 2.2-1.6.3-.1.4-.4.3-.7-.1-.2-.4-.3-.7-.2zM38.4 15.2c-1.1-.4-2.1-.6-3.1-.6-.3 0-.5.2-.5.5s.2.5.5.5c.9 0 1.8.2 2.8.5h.2c.2 0 .4-.1.5-.3 0-.3-.1-.5-.4-.6z"></path></svg>