<svg xmlns:xlink="http://www.w3.org/1999/xlink" xmlns="http://www.w3.org/2000/svg" width="22" height="22" viewBox="10.5 5.2 39.6 17.8"><path d="M45.5 11.1 38.9 10l-7.6-4.8h-9.1L13.9 10h-3.4l2.6 9.1h3.6c.3 2.1 2.2 3.8 4.4 3.8h.6c2-.3 3.5-1.8 3.8-3.7h11.1c.3 2.1 2.2 3.8 4.4 3.8h.6c2.2-.3 3.8-2.2 3.8-4.4 0-2.5-2-4.5-4.5-4.5-2.2 0-4 1.6-4.4 3.8H25.4c-.3-2.1-2.2-3.8-4.4-3.8s-4 1.6-4.4 3.7h-2.5l-1.8-6.3h1.9l8.4-4.8h1.5v4.8h14.5l6.3 1 3.8 2.1v3.2h-3.4c0 .2.1.5.1.7 0 .2 0 .5-.1.7h4.8v-5.4l-4.6-2.7zm-4.6 4.2c1.7 0 3.1 1.4 3.1 3.1 0 1.5-1.1 2.8-2.6 3H41c-1.7 0-3.1-1.4-3.1-3.1-.1-1.6 1.3-3 3-3zm-19.9 0c1.7 0 3.1 1.4 3.1 3.1 0 1.5-1.1 2.8-2.6 3h-.4c-1.7 0-3.1-1.4-3.1-3.1 0-1.6 1.4-3 3-3zm4.5-5.3V6.6h5.4l5.4 3.4H25.5z"></path></svg>