<svg xmlns:xlink="http://www.w3.org/1999/xlink" xmlns="http://www.w3.org/2000/svg" width="22" height="22" viewBox="0 0 24 24"><defs><filter id="gsvg"><feColorMatrix in="SourceGraphic" values="0 0 0 0 0.000000 0 0 0 0 0.000000 0 0 0 0 0.000000 0 0 0 1.000000 0"></feColorMatrix></filter></defs><g fill="none" fill-rule="evenodd" filter="url(#gsvg)" transform="translate(0 -1)"><path fill="#FFFFFF" d="M22.927 21.46c.567 0 .926-.598.687-1.105-2.358-4.687-1.194-11.91-1.194-11.97.12-.657-.597-1.135-1.164-.777-.12.09-2.09 1.433-3.254 3.642-.597-.925-1.164-1.552-1.552-1.91.119-1.314.388-2.418.865-3.164.508-.747-.537-1.612-1.164-.926-1.612 1.702-2.955 4.687-3.672 6.955.18-2.06.597-4.238 1.344-6.179.298-.746-.657-1.373-1.224-.806-2.15 2.12-3.94 5.612-4.746 8.567-1.135-4.09-2.956-5.97-3.075-6.06-.537-.537-1.433-.059-1.284.657.508 2.508.597 5.045.538 7.135-.776-1.821-1.672-2.746-1.732-2.836-.567-.537-1.522.03-1.253.776 1.134 3.463 0 6.955 0 7.015-.18.478.209.985.716.985h21.164zM2.718 19.936c.15-.627.299-1.523.329-2.597.209.746.358 1.612.418 2.597h-.747zm2.418 0c.239-1.493.597-4.717.329-8.358 1.164 2.447 1.671 5.671 1.76 8.358H5.137zm3.672 0c-.358-3.702.627-7.284 2.507-10.478-.776 4.299-.477 8.687-.268 10.478h-2.24zm6 0h-2.15c.18-4.358 1.254-7.642 2.21-9.732.626-.626.149 8.15-.06 9.732zm1.522 0c.21-1.582.597-5.015.358-7.94 1.523 2.298 2.418 5.253 2.866 7.94H16.33zm4.746 0c-.477-3.045-1.283-5.344-2.119-7.015.358-1.164 1.105-2.12 1.761-2.836-.209 2.388-.268 6.448 1.045 9.85h-.687z"></path></g></svg>