<svg xmlns:xlink="http://www.w3.org/1999/xlink" xmlns="http://www.w3.org/2000/svg" width="22" height="22" viewBox="11.36 2.49 37.34 23.51"><path d="M46 16.9c-1.7-1.8-4.1-2.6-7.1-2.5h-1.4c-1.3-.1-2.3-.4-3.3-.8.1-.2.1-.3.1-.5 0-.5-.2-.9-.5-1.2-.6-.6-1.6-.7-2.3-.1l-.5-.5c.5-.7.5-1.7-.2-2.3-.5-.5-1.2-.6-1.8-.4-.2-.3-.3-.6-.5-.8.5-1.5.7-3.2-.4-4.2-1.9-1.7-4.6-1.1-6.2-.5-1.6-.1-3.2 0-4.3.1-2.5.3-3.9.9-4.4 1.7-.5.9-.4 2.2-.2 3.6.2 1.6.3 3.4-.4 4.4-1.6 2.3-1.2 10.8-1.2 11.8v.7l2.5.1 1 .5h1.9l.7-.4.8.4h1.9l.7-.4.8.4h2l.9-.9h6.2l.9.9h2l.7-.4.8.4h1.9l.7-.4.8.4h1.9l.7-.4.8.4h1.9l.7-.4.8.4h1.9l1.4-.8v-.4c-.1-.4.1-4.9-2.7-7.9zm-13.5-4.7c.2 0 .4.1.5.2.1.1.2.3.2.5s-.1.4-.2.5l-.7.7-.5.5-.8.9c-.3.3-.8.3-1.1 0-.1-.1-.2-.3-.2-.5s.1-.4.2-.5l.4-.4.8-.8.4-.4.5-.5.2-.2c.1.1.2 0 .3 0zm-3-2.9s.1 0 0 0c.2 0 .4.1.5.2.2.2.3.5.2.8 0 .1-.1.2-.2.3l-.8.8-.1.1-1.1 1.1-.1.1c-.3.3-.8.3-1.1 0-.1-.1-.2-.3-.2-.5s.1-.4.2-.5l.1-.1 1.1-1.1.2-.2.8-.8c.1-.1.3-.2.5-.2zm-15-1.4c-.1-.7-.1-1.5-.1-2 6.4-1.8 9.3-.7 10.4-.1-3.7 4-8.8 2.6-10.3 2.1zm12.6-3.4c.2.2.3.6.3 1 0 .6-.2 1.4-.5 2.2v-.1c-.2-.4-.4-.8-.6-1.1-.2-.4-.4-.7-.6-.9l-.1-.1c-.5-.5-1.8-.9-3.4-1 .5-.2 1.2-.4 1.9-.5.7-.1 1.4-.1 2 .1.4-.1.7.1 1 .4zm-13.2 9c.8-1.1.8-2.6.7-4.1.9.2 2.2.5 3.8.5 2.2 0 4.7-.6 6.9-2.6.2.9.5 2 1.2 3.2l-.2.2c-.3.3-.5.8-.5 1.2s.2.9.5 1.2.8.5 1.2.5c.5 0 .9-.2 1.2-.5l.1-.1c.2.1.3.3.5.4l-.2.2c-.3.3-.5.8-.5 1.2 0 .5.2.9.5 1.2.3.3.8.5 1.2.5s.9-.2 1.2-.5l1.1-1.1c1.3.4 2.8.6 4.4.7.5 0 1 .1 1.5.1h.1c2.6-.1 4.6.6 6 2.1.7.7 1.1 1.5 1.5 2.3-1.4.3-4.7.8-10.3.9H24.4c-.2 0-.4-.1-.9-.5-1.2-1.1-3.1-2.9-10.8-3 .5-1.7.7-3.3 1.2-4zm32.9 10.7h-1.2l-1.1-.6-1.1.6h-1.2l-1.1-.6-1.1.6h-1.2l-1.1-.6-1.1.6h-1.2l-1.1-.6-1.1.6h-1l-.9-.9h-7.4l-.9.9h-1l-1.1-.6-1.1.6h-1.2l-1.1-.6-1.1.6h-1.2l-.9-.5-1.5-.1c-.1-1.4-.1-3 0-4.6 7.1.1 8.8 1.7 9.9 2.6.5.5 1 .9 1.9.9h11.5c5.9 0 9.3-.6 10.7-.9.2 1 .3 1.9.3 2.3l-.3.3z"></path></svg>