<svg xmlns:xlink="http://www.w3.org/1999/xlink" xmlns="http://www.w3.org/2000/svg" width="22" height="22" viewBox="10.2 1.86 39.7 24.24"><path d="M24.1 14.2c-.6-.1-1.1.3-1.3.8.2-.1.4-.1.6-.1.6.1 1.1.7 1 1.3 0 .1 0 .1-.1.2.4-.1.7-.5.8-.9.1-.6-.4-1.2-1-1.3zM21.7 11.5c-.6-.1-1.1.3-1.3.8.2-.1.4-.1.6-.1.6.1 1.1.7 1 1.3 0 .1 0 .1-.1.2.4-.1.7-.5.8-.9.1-.6-.4-1.2-1-1.3zM21.2 14.5c-.6-.1-1.1.3-1.3.8.2-.1.4-.1.6-.1.6.1 1.1.7 1 1.3 0 .1 0 .1-.1.2.4-.1.7-.5.8-.9.1-.6-.3-1.2-1-1.3z"></path><path d="M49.1 18.7H35V9.3l8.6-3.1c.3-.1.5-.4.5-.7 0-.3-.2-.6-.5-.7l-9.1-2.9c-.2-.1-.5 0-.7.1s-.3.4-.3.6v16.1h-5.3c.1-.5.2-1.1.2-1.7 0-5-4.1-9.1-9.1-9.1S10.2 12 10.2 17s4.1 9.1 9.1 9.1c3.9 0 7.2-2.5 8.5-5.9h21.3c.4 0 .8-.3.8-.8s-.4-.7-.8-.7zM35 3.6l6 1.9-6 2.2V3.6zm-15.7 21c-4.2 0-7.6-3.4-7.6-7.6s3.4-7.6 7.6-7.6 7.6 3.4 7.6 7.6-3.4 7.6-7.6 7.6z"></path></svg>