<svg xmlns:xlink="http://www.w3.org/1999/xlink" xmlns="http://www.w3.org/2000/svg" width="22" height="22" viewBox="15.1 -0.05 29.09 28.05"><path d="m42.1 6.7 1.3-2-.2-.4c-1.6-2.6-6.6-4.9-10.8-4-7.8-1.8-15.3 3.6-17.3 9.7v.2c-.1 1.1 1.4 1.6 2.4 1.9-.3.9-.4 2 .3 2.3l.9.3c3.6.8 9 .2 14.3-1.8 1.1-.3 2.2.1 2.9 1 .2.3.2.7.1 1-.3 1.1-1 1.9-2 2.5-.7.4-2.8-.2-3.8-.9l-.8-.6-.2 1c-.3 1.4.4 2.7.8 3.3.5.7 1.1 1.3 1.8 1.7-.4 2 1 4.4 2.7 5.5l.8.6.2-1c.7-4.2 1.3-5.1 1.4-5.2 3-.7 5.7-3.4 6.7-6.8 1.2-2.9.5-6-1.5-8.3zm.5 7.9c-.9 2.9-3.2 5.3-5.9 5.9-.6.1-1.3.7-2.1 5.1-1-1.1-1.6-2.7-1.2-3.8l.3-.8-.8-.1c-.3 0-1-.5-1.6-1.4-.3-.4-.5-.8-.6-1.3 1.3.6 3.1.9 4.1.3 1.3-.7 2.2-1.9 2.6-3.3.2-.7.1-1.5-.4-2.1-1-1.4-2.9-2-4.4-1.4-5.1 1.9-10.1 2.5-13.5 1.8l-.5-.1c.1-.5.2-1 .4-1.4l.3-.8-.8-.2c-.9-.1-1.8-.5-2.1-.7 2-5.6 8.8-10.3 15.9-8.6h.4c3.7-.9 7.8 1.1 9.3 3l-1.4 2.1.4.4c2.5 2.7 2.1 5.8 1.6 7.4z"></path><circle cx="21.8" cy="7.6" r="1.2"></circle><path d="M26.9 3c-.2-.1-.5 0-.7.2-.1.2 0 .5.2.7.1.1 3.6 2 1.5 6.8-.1.3 0 .5.3.7h.2c.2 0 .4-.1.5-.3 2.4-5.7-2-8.1-2-8.1z"></path></svg>