<svg xmlns:xlink="http://www.w3.org/1999/xlink" xmlns="http://www.w3.org/2000/svg" width="22" height="22" viewBox="8 3.2 43.97 21.4"><path d="M51.5 17.8c.5-1 .6-1.8.3-2.4-.8-1.5-2.7-1.7-5.5-1.9-2.2-.2-5-.3-8.4-1.2-6-1.5-10.2-6.6-10.2-6.6l-.3-.4-.4.1c-8 1.7-13-1.7-13.1-1.8l-.6-.4L11 6.9C9 10 8.2 19.7 8.1 20.1l-.1.6.6.1c.2 0 4.6 1.1 7.9 1.2h2.1c2.2 0 4.6-.1 13 1.9 2.1.5 4.1.7 6 .7 6.3 0 10.8-2.6 13-5.6.4-.3.6-.7.9-1.2zM13.6 5.4c1.7.9 6.4 3 13.1 1.7.1.1.1.2.2.2-5.8 2.1-11.8-.2-13.8-1.2l.5-.7zm-1.4 2.3.2-.3c1.4.7 5.2 2.3 9.5 2.3 2 0 4.1-.3 6.3-1.2.2.2.5.4.7.6l-2.7 2.2c-.3.3-.4.7-.1 1.1.1.2.4.3.6.3s.3-.1.5-.2l3-2.4c.6.5 1.3.9 2 1.4l-2.1 2.2c-.3.3-.3.8 0 1.1.1.1.3.2.5.2s.4-.1.5-.2l2.3-2.5c.9.5 2 .9 3 1.3l-1.6 2.1c-.3.3-.2.8.1 1.1.1.1.3.2.5.2s.4-.1.6-.3l2-2.6c3.3.8 6.1 1 8.2 1.1 2.3.2 3.9.3 4.3 1 0 .1 0 .5-.3 1-.8.7-6.3 5-13.5 3.3-3.6-.9-6.3-.9-8.1-.1-.8.4-1.3.9-1.6 1.3-1.5-.3-2.7-.5-3.7-.6-.3-.9-2.6-5.6-13.1-5.6.4-3.1 1.1-6.4 2-7.8zm6.4 13h-2c-2.4-.1-5.6-.8-7-1.1.1-.8.2-1.7.3-2.8 7.7-.1 10.6 2.5 11.5 3.9-.7 0-1.3-.1-1.8-.1-.3 0-.6.1-1 .1zM32 22.6c-1.2-.3-2.2-.5-3.2-.7.8-.6 2.9-1.2 7.5-.1 3.7.9 6.9.4 9.5-.5-2.8 1.5-7.3 2.8-13.8 1.3z"></path></svg>