<svg xmlns:xlink="http://www.w3.org/1999/xlink" xmlns="http://www.w3.org/2000/svg" width="22" height="22" viewBox="8.57 0 42.83 28"><path d="M42.4 28c-5 0-9-4-9-9 0-1.7.5-3.4 1.5-4.9.9-1.4 2.1-2.4 3.6-3.1l-.4-1-9.2 11h-.3l-2.3-.2c-.4 2-1.5 3.8-3 5-1.6 1.4-3.7 2.1-5.8 2.1-2.4 0-4.7-.9-6.3-2.6-3.5-3.5-3.5-9.2 0-12.7 1.7-1.7 4-2.7 6.4-2.6 1.1 0 2.2.2 3.2.6l1.9-4.3-.7-2c0-.1 0-.2.1-.3l-.4-1.1c-.5 0-.9-.1-1.4-.2-1-.3-1.2-.8-1.2-1.2 0-1.3.7-1.5 1.1-1.5s.9.1 1.3.2.7.2 1.1.2c.3 0 .7 0 1-.1.4-.1.7-.1.8-.1s.8.1.8.9c0 .2-.2.4-1.1 1-.4.2-.9.4-1.3.6l.3.9c.1 0 .2 0 .2.1l.5 1.4h12.5l-1-2.6V1.4c0-.2.1-.3.3-.3h5c.2 0 .3.1.3.3v1c0 .2-.1.3-.3.3H37l2.8 7.7c.8-.3 1.7-.4 2.6-.4 4.9 0 9 4 9 8.9v.1c0 4.9-4 9-9 9zM39 12.4c-2.7 1.4-4 3.5-4 6.6 0 4.1 3.3 7.5 7.4 7.5 2 0 3.9-.8 5.3-2.2 2.9-2.9 2.9-7.6 0-10.5a7.493 7.493 0 0 0-7.4-1.9c.9 2.4 1.6 4.3 2.1 5.7l.6 1.6c0 .5-.2.7-.6.7s-.8-.5-1.3-1.8L39 12.4zm-21.4-.9c-2 0-3.9.8-5.3 2.2-2.9 2.9-2.9 7.6 0 10.5 1.4 1.4 3.3 2.2 5.2 2.2 1.8 0 3.5-.6 4.8-1.8 1.3-1 2.1-2.4 2.5-4l-7.8-.7c-.2 0-.3-.2-.3-.3v-.1l3.4-7.5c-.8-.3-1.6-.5-2.5-.5zm9 7.8 1.3.1-4.2-11.5-1.5 3.4c2.9 1.7 4.4 4.3 4.4 7.7v.3zm-7.7-.8 6.1.6V19c.1-2.6-1.3-5-3.5-6.3l-2.6 5.8zm10.2-.1 8.4-10.1-.6-1.7H24.8l4.3 11.8z"></path></svg>