<svg xmlns:xlink="http://www.w3.org/1999/xlink" xmlns="http://www.w3.org/2000/svg" width="22" height="22" viewBox="7.6 6.4 45.1 15.4"><path d="M26.2 8.8s-11.8-2.9-15.3 0c0 0-1.2 13.2 8.1 11.5 9.2-1.7 7-2.7 8.3-7.8s-1.1-3.7-1.1-3.7zM34.1 8.8s11.8-2.9 15.3 0c0 0 1.2 13.2-8.1 11.5-9.2-1.7-7-2.7-8.3-7.8s1.1-3.7 1.1-3.7z"></path><path d="M51.9 7.8c-.3-.1-6.4-1.4-11.2-1.4-1.7 0-3.1.2-4 .5-3.9 1.5-6.6 1.6-6.7 1.6s-2.8-.2-6.7-1.6c-.9-.4-2.3-.5-4-.5-4.8 0-10.9 1.4-11.2 1.4l-.5.1v.5l.3 3 .2.6.6-.1H9c.7 0 1.1.4 1.2 1.2.3 2.4 1 5.8 2.8 7.4 1.4 1.2 4.7 1.3 5.7 1.3 2.8 0 5.4-.5 6.8-1.4h.1v-.1c.8-.9 1.8-3.9 2.4-6.2.4-1.8 2.1-1.9 2.2-1.9s1.8.1 2.2 1.9c.5 2.3 1.6 5.3 2.4 6.2v.1h.1c1.4.9 3.9 1.4 6.8 1.4 1 0 4.3-.1 5.7-1.3 1.8-1.6 2.4-5 2.8-7.4.1-.8.5-1.2 1.2-1.2h.3l.6.1.1-.6.3-3v-.5l-.8-.1zm-27.2 9.9c-.8 1.1-2.5 2-5.6 2s-5.5-.6-6.1-1.7c-.6-1-1.6-5.6-1.1-6.6.5-1.1 2.4-3.2 6-3.2 3.7 0 7.6 1 8.3 2.1.7 1.3-.6 6.3-1.5 7.4zM47 18c-.6 1-3 1.7-6.1 1.7-3.1 0-4.8-.9-5.6-2-.8-1.1-2.2-6.2-1.5-7.4.7-1.2 4.6-2.1 8.3-2.1 3.7 0 5.5 2.1 6 3.2S47.5 17 47 18z"></path></svg>