<svg xmlns:xlink="http://www.w3.org/1999/xlink" xmlns="http://www.w3.org/2000/svg" width="22" height="22" viewBox="0 0 24 24"><path d="M24 8.333v-.186c0-.062-.062-.062-.062-.062l-.062-.062-.062-.062h-.062c-.062 0-.124-.062-.186-.062h-7.008C15.194 4.8 18.605.83 18.605.767c.186-.124.186-.372.062-.558-.124-.186-.31-.248-.558-.186-.062 0-3.411 1.179-5.148 1.613C10.915 2.132 8.744.147 8.744.147 8.62.023 8.496.023 8.31.023c-.124.062-.248.124-.31.248-1.178 2.853-.248 5.892.496 7.628h-.682L.248 10.318s-.062 0-.062.062l-.062.062-.062.062-.062.062v6.263a.49.49 0 0 0 .496.497h18.915c.062 0 .124 0 .186-.062 0 0 .062 0 .062-.062 0 0 .062 0 .062-.062l4.155-3.783c.124-.062.124-.186.124-.373v-4.65ZM8.682 1.263C9.55 1.884 11.35 3 13.21 2.567c1.055-.248 2.667-.744 3.783-1.116C16 2.938 14.698 5.543 15.566 7.96c.062.248.186.496.31.744H9.922c-.062-.186-.248-.434-.372-.744-.62-1.426-1.612-4.155-.868-6.697Zm-.62 7.566h.93c.186.31.248.497.31.497.062.124.248.248.372.248h7.07a.522.522 0 0 0 .434-.248c.062-.124.062-.31-.062-.497h4.651l-2.542 1.489H3.41l4.651-1.489ZM.868 11.25h18.047v5.084H.868v-5.085Zm22.202 1.55-3.225 2.914V11l3.225-1.86v3.658Z"></path></svg>