<svg xmlns:xlink="http://www.w3.org/1999/xlink" xmlns="http://www.w3.org/2000/svg" width="22" height="22" viewBox="12.32 0 35.4 28"><path d="M26.6 17.3c-.4 0-.7.4-.7.8.2 2 .2 5.5-.6 6.5-.6.7-3.4 1.8-6.1 1.8-1.5 0-3.5-.3-4.8-1.8-.8-1-.7-3.3.3-6.3 1.7-5 5.4-10.3 7.6-10.9.3 0 2 0 2.9.8.4.3.5.8.5 1.3 0 .4.3.8.8.8s.8-.3.8-.8c0-1-.3-1.8-1-2.4C24.7 5.8 22.2 6 22 6h-.1c-3 .7-7 6.8-8.7 11.9-.8 2.5-1.5 5.8 0 7.7 1.3 1.5 3.3 2.3 5.9 2.3 2.9 0 6.2-1.1 7.3-2.3 1.5-1.8 1-7 1-7.6 0-.4-.4-.7-.8-.7z"></path><path d="M21.8 11c-.3-.2-.8-.1-1 .2-.2.3-.1.8.2 1l3.2 2.1-4.7 2.2c-.4.2-.5.6-.4 1 .1.3.4.4.7.4.1 0 .2 0 .3-.1l2.6-1.2-1.4 4c-.1.4.1.8.5 1h.2c.3 0 .6-.2.7-.5l1.9-5.4 5.3-2.5 5.3 2.5 1.9 5.4c.1.3.4.5.7.5h.2c.4-.1.6-.6.5-1l-1.4-4 2.6 1.2c.1 0 .2.1.3.1.3 0 .6-.2.7-.4.2-.4 0-.8-.4-1l-4.7-2.2 3.2-2.1c.3-.2.5-.7.2-1-.2-.3-.7-.5-1-.2l-4 2.6-3.2-1.6V.8c0-.4-.3-.8-.8-.8s-.8.3-.8.8V12l-3.4 1.6-4-2.6z"></path><path d="M46.8 17.9C45 12.8 41 6.7 38.1 6H38c-.1 0-2.6-.2-4.1 1.2-.7.6-1 1.4-1 2.4 0 .4.3.8.8.8s.8-.3.8-.8c0-.6.2-1 .5-1.3.8-.7 2.3-.8 2.9-.8 2.1.6 5.9 5.9 7.6 10.9 1 3 1.1 5.2.3 6.3-1.2 1.5-3.3 1.8-4.8 1.8-2.8 0-5.5-1.1-6.1-1.8-.8-1-.8-4.5-.6-6.5 0-.4-.3-.8-.7-.8-.4 0-.8.3-.8.7-.1.6-.5 5.8 1 7.6 1.1 1.3 4.4 2.3 7.3 2.3 2.6 0 4.7-.8 5.9-2.3 1.3-2 .6-5.3-.2-7.8z"></path></svg>