<svg xmlns:xlink="http://www.w3.org/1999/xlink" xmlns="http://www.w3.org/2000/svg" width="22" height="22" viewBox="7.97 1.9 44.03 24.15"><path d="M9.4 15.2c-.1.1-.1.2-.2.3l-.2.2c0 .1-.1.1-.1.2-1.5 2.5-1.2 5.8 1 8l.1.1.1.1c2.6 2.6 6.7 2.6 9.3 0l.2-.2 5.8-5.8 4.9-4.9c1.2-1.2 1.9-2.9 1.9-4.6s-.7-3.4-1.9-4.6l-.3-.2c-1.2-1.2-2.9-1.9-4.6-1.9s-3.4.7-4.6 1.9l-4.9 4.9-.5.5-5.4 5.4c-.3.2-.5.4-.6.6zM21.8 4.9c1-1 2.2-1.5 3.6-1.5s2.6.5 3.6 1.5l.3.3c1 1 1.5 2.2 1.5 3.6s-.5 2.6-1.5 3.6l-4.9 4.9-7.5-7.5 4.9-4.9zM44.2 6c-2.9 0-7.8.6-7.8 2.9v4.5c.5-.1 1.1-.1 1.6-.2v-2.4c1.7.8 4.3 1 6.2 1s4.5-.2 6.2-1v3.9c-.1.3-1.1.7-2.8 1v1.6c2.3-.4 4.4-1.1 4.4-2.6V8.8C52 6.6 47.1 6 44.2 6zm0 4.1c-3.8 0-5.8-.8-6.1-1.3.3-.4 2.4-1.3 6.1-1.3s5.8.8 6.1 1.3c-.3.5-2.3 1.3-6.1 1.3z"></path><path d="M40.3 17.2h-.5c-3.8 0-5.8-.8-6.1-1.3.2-.3 1.1-.7 2.8-1v-1.6c-2.4.4-4.5 1.2-4.5 2.7v5.8c0 2.3 4.9 2.9 7.8 2.9s7.8-.6 7.8-2.9v-4.5c-1.2.2-2.4.3-3.4.3-1.1 0-2.5-.1-3.9-.4zm5.7 4.5c-.2.4-2.3 1.3-6.2 1.3-3.9 0-6-.9-6.2-1.3v-3.9c1.7.8 4.3 1 6.2 1s4.5-.2 6.2-1v3.9z"></path><path d="M38.2 14.8c.5 0 1.1-.1 1.7-.1 3.5 0 5.4.7 6 1.1.7 0 1.2-.1 1.7-.2-.4-2-5-2.6-7.8-2.6-.5 0-1.2 0-1.8.1v1.5l.2.2zM47.6 15.7c-.5.1-1.1.2-1.7.2.1 0 .1.1.1.1-.3.4-2.2 1.2-5.6 1.2 1.3.2 2.7.3 3.9.3 1 0 2.2-.1 3.4-.3V16c-.1-.1-.1-.2-.1-.3z"></path><path d="M36.5 15c.5-.1 1.1-.2 1.7-.2-.1 0-.1-.1-.1-.1v-1.5c-.5 0-1.1.1-1.6.2v1.3c-.1.1-.1.2 0 .3z"></path></svg>