<svg xmlns:xlink="http://www.w3.org/1999/xlink" xmlns="http://www.w3.org/2000/svg" width="22" height="22" viewBox="17.2 0 25.51 28"><path d="m42.5 22.2-5.2-4.5c.2-.3.3-.6.3-1 0-1.1-.9-2-2-2-.6 0-1 .2-1.4.6-.1-.1-.1-.2-.2-.2.3-2 .8-7.5-1.5-10.6-.9-1.3-2.2-2-3.9-2.2-.2 0-.3.1-.4.2-.1.1-.1.3-.1.5l3.4 9.2L21.4.2c-.2-.2-.3-.2-.5-.2s-.3.1-.4.3c-.1.1-1.5 3.1.1 6.6 1.3 3 4.3 5.4 8.8 7.2-.4.1-.8.3-1.1.6-.4-.4-1-.6-1.7-.6h-6.8c-1.4 0-2.6 1.2-2.6 2.6s1.2 2.6 2.6 2.6h6.8c.6 0 1.2-.2 1.7-.6l-1.8 4.5-2.7 1.4c-.2.1-.3.4-.2.7.1.2.3.3.4.3s.2 0 .2-.1L27 24c.1-.1.2-.1.2-.3l1.8-4.6c.2.1.5.1.7.1h.5V24l.9 3.6c.1.2.3.4.5.4h.1c.3-.1.4-.3.4-.6l-.9-3.6v-4.6h.8c.2 0 .5 0 .7-.1l2.4 4.5c0 .1.1.1.2.2l2.4 1.6c.1.1.2.1.3.1.2 0 .3-.1.4-.2.1-.2.1-.5-.1-.7L35.9 23l-2.3-4.4c.2-.2.4-.3.5-.5.4.4.9.6 1.4.6.4 0 .8-.1 1.1-.3l5.3 4.6h.3c.1 0 .3-.1.4-.2.2-.1.1-.5-.1-.6zM31.7 4.9c1.7 2.3 1.7 6.3 1.4 8.6L29.3 3.3c1 .2 1.8.8 2.4 1.6zM21.5 6.5c-.9-2.1-.7-4-.4-5L31.8 14c-5.4-1.9-8.9-4.4-10.3-7.5z"></path></svg>